<svg width="763" height="123" viewBox="0 0 763 123" fill="none" xmlns="http://www.w3.org/2000/svg">
<path d="M200.901 105.781C201.921 104.548 202.855 103.272 203.702 101.95C205.908 98.5069 205.478 94.7508 203.484 91.9487C201.532 89.2067 198.119 87.3913 194.293 87.3913H182.646C180.247 87.3913 178.136 88.2288 176.3 89.2377C175.1 89.8966 173.87 90.7216 172.746 91.4756C172.222 91.8269 171.721 92.1628 171.257 92.4593C169.921 93.3127 168.249 93.7863 166.148 93.7863C163.224 93.7863 160.93 92.8921 159.113 91.173C159.084 91.1423 159.055 91.1113 159.026 91.08C158.372 90.3682 158.193 89.719 158.212 89.1626C158.232 88.565 158.492 87.868 159.067 87.1558C160.243 85.6974 162.439 84.5604 164.733 84.5604H201.395C206.159 84.5604 210.536 80.983 210.536 75.8747C210.536 67.2605 208.728 59.6882 205.031 53.2311C201.35 46.7037 196.218 41.6835 189.663 38.2087C183.119 34.7404 175.652 33.0342 167.313 33.0342C158.872 33.0342 151.304 34.7912 144.663 38.3593L144.651 38.3655C138.1 41.9406 132.974 47.0585 129.297 53.6791C125.604 60.2329 123.799 67.9468 123.799 76.7468C123.799 85.5505 125.606 93.3091 129.294 99.9544L129.3 99.9647L129.306 99.9748C133.078 106.587 138.248 111.7 144.797 115.273L144.809 115.28C151.446 118.846 158.965 120.605 167.313 120.605C174.27 120.605 180.675 119.295 186.496 116.646C192.285 114.011 197.1 110.392 200.901 105.781ZM200.901 105.781C200.902 105.78 200.902 105.779 200.903 105.779L199.359 104.507L200.9 105.782C200.9 105.782 200.901 105.781 200.901 105.781ZM174.592 62.1206L174.61 62.1365L174.629 62.1519C175.245 62.6641 175.365 63.0838 175.379 63.3528C175.395 63.6691 175.276 64.1257 174.853 64.6672C173.979 65.7874 172.181 66.7531 170.233 66.7531H163.768C161.924 66.7531 160.287 65.7847 159.511 64.6614C159.136 64.1183 159.026 63.6373 159.058 63.274C159.087 62.9488 159.245 62.5068 159.846 62.012L158.574 60.4687L159.884 61.9794C161.69 60.4128 164.061 59.5619 167.168 59.5619C170.247 59.5619 172.674 60.4455 174.592 62.1206ZM75.6274 27.7957V25.1227C75.6274 18.4952 70.2549 13.1227 63.6274 13.1227H14C7.37258 13.1227 2 18.4952 2 25.1227V107.587C2 114.215 7.37258 119.587 14 119.587H22.5502C29.1776 119.587 34.5502 114.215 34.5502 107.587V87.4735C34.5502 83.0552 38.1319 79.4735 42.5502 79.4735H52.8483C59.4757 79.4735 64.8483 74.1009 64.8483 67.4735V65.8178C64.8483 59.1904 59.4757 53.8178 52.8483 53.8178H41.5612C37.6891 53.8178 34.5502 50.6789 34.5502 46.8068C34.5502 42.9346 37.6891 39.7957 41.5612 39.7957H63.6274C70.2549 39.7957 75.6274 34.4231 75.6274 27.7957ZM116.202 107.587V20.0358C116.202 13.4084 110.829 8.03577 104.202 8.03577H95.6516C89.0241 8.03577 83.6516 13.4083 83.6516 20.0358V107.587C83.6516 114.215 89.0241 119.587 95.6516 119.587H104.202C110.829 119.587 116.202 114.215 116.202 107.587ZM263.967 110.939L266.586 114.585C268.84 117.725 272.468 119.587 276.334 119.587H283.701C293.488 119.587 299.159 108.502 293.432 100.565L280.097 82.0855C278.14 79.3744 278.076 75.7327 279.936 72.9544L293.475 52.7263C298.812 44.7531 293.097 34.0516 283.503 34.0516H276.693C272.4 34.0516 268.435 36.3442 266.293 40.0641L265.121 42.1008C262.219 47.1405 255.08 47.4986 251.689 42.7746L249.017 39.0534C246.763 35.9135 243.135 34.0516 239.269 34.0516H231.937C222.142 34.0516 216.473 45.1532 222.217 53.0878L235.133 70.9317C237.065 73.6016 237.163 77.1833 235.378 79.9542L221.766 101.09C216.623 109.075 222.356 119.587 231.855 119.587H239.02C243.335 119.587 247.318 117.27 249.452 113.519L250.514 111.65C253.398 106.578 260.565 106.2 263.967 110.939Z" stroke="#0F172A" stroke-width="4"/>
<path d="M330.327 38.1758H303.749V16.4938H385.731V38.1758H358.861H358.361V38.6758V117.999H330.827V38.6758V38.1758H330.327ZM422.797 4.58189L422.797 4.58194L422.803 4.58725C425.801 7.30154 427.297 10.7039 427.297 14.8306C427.297 18.8566 425.804 22.2117 422.803 24.9285C419.905 27.542 416.055 28.8704 411.2 28.8704C406.25 28.8704 402.301 27.5423 399.307 24.9283C396.405 22.2141 394.958 18.8593 394.958 14.8306C394.958 10.6997 396.408 7.29669 399.31 4.58439C402.305 1.87482 406.252 0.5 411.2 0.5C416.05 0.5 419.899 1.87428 422.797 4.58189ZM488.231 87.7387H517.533C515.457 97.4342 510.991 105.026 504.149 110.549C497.165 116.187 488.546 119.017 478.258 119.017C470.276 119.017 463.177 117.337 456.951 113.989C450.824 110.643 446.04 105.865 442.591 99.6458C439.145 93.432 437.413 86.1032 437.413 77.6424C437.413 69.2797 439.145 61.9991 442.591 55.7844C446.04 49.5656 450.824 44.788 456.95 41.4417C463.177 38.0935 470.275 36.4133 478.258 36.4133C488.546 36.4133 497.165 39.2436 504.149 44.8808L504.152 44.8834C510.992 50.3112 515.459 57.9011 517.534 67.6916H488.225C487.333 65.1277 486.037 63.1504 484.317 61.8006C482.516 60.3874 480.291 59.6947 477.676 59.6947C473.918 59.6947 470.905 61.2797 468.679 64.4124L468.677 64.4151C466.554 67.4443 465.529 71.8782 465.529 77.6424C465.529 83.4084 466.554 87.8861 468.673 91.0089L468.672 91.009L468.679 91.0179C470.905 94.1506 473.918 95.7356 477.676 95.7356C480.337 95.7356 482.588 95.0442 484.39 93.6297C486.111 92.2793 487.383 90.3016 488.231 87.7387ZM582.75 78.2473L614.848 117.999H581.366L558.95 84.778L558.035 83.4228V85.0577V117.999H530.501V11.4048H558.035V68.9186V70.4947L558.944 69.2068L581.36 37.431H614.285L582.745 77.6246L582.5 77.9377L582.75 78.2473ZM670.43 90.792H699.915C698.632 96.0922 696.24 100.858 692.735 105.095L692.735 105.096C689.196 109.394 684.697 112.791 679.229 115.282C673.768 117.769 667.725 119.017 661.092 119.017C653.11 119.017 646.011 117.337 639.784 113.988C633.658 110.642 628.824 105.864 625.278 99.6435C621.833 93.4302 620.102 86.1021 620.102 77.6424C620.102 69.1814 621.834 61.9025 625.278 55.7873L625.28 55.7844C628.729 49.5652 633.513 44.7875 639.64 41.4412C645.866 38.0937 653.012 36.4133 661.092 36.4133C669.078 36.4133 676.129 38.0463 682.259 41.2985C688.385 44.5487 693.168 49.2297 696.616 55.3511L696.617 55.3541C700.061 61.3723 701.792 68.5048 701.792 76.77C701.792 78.8326 701.666 80.8953 701.415 82.9583H647.845H647.311L647.346 83.4909C647.641 88.0158 648.877 91.4913 651.123 93.8366L651.131 93.8447L651.139 93.8523C653.474 96.083 656.416 97.1895 659.928 97.1895C662.382 97.1895 664.516 96.6385 666.308 95.5136C668.022 94.4376 669.393 92.855 670.43 90.792ZM673.176 70.1455H673.676V69.6455C673.676 66.0349 672.465 63.1711 670.006 61.1227C667.575 58.9999 664.543 57.9499 660.947 57.9499C657.358 57.9499 654.373 58.9474 652.035 60.9761C649.69 62.9123 648.192 65.7929 647.498 69.5549L647.389 70.1455H647.99H673.176ZM753.859 94.7178H761.657V117.999H749.783C739.425 117.999 731.749 115.437 726.659 110.401C721.571 105.366 718.983 97.7743 718.983 87.5295V60.6309V60.1309H718.483H708.938V37.431H718.483H718.983V36.931V17.6569H746.662V36.931V37.431H747.162H761.512V60.1309H747.162H746.662V60.6309V87.9657C746.662 90.2485 747.156 92.0103 748.265 93.1176L748.273 93.126L748.282 93.134C749.487 94.2279 751.387 94.7178 753.859 94.7178ZM424.822 37.431V117.999H397.288V37.431H424.822Z" fill="#0F172A" stroke="#0F172A"/>
</svg>
